<?xml version="1.0" encoding="UTF-8"?> <svg xmlns="http://www.w3.org/2000/svg" viewBox="683.516 3940 219.636 223.119"><defs><style> .cls-1 { fill: #ffd740; } .cls-2 { fill: #263238; } .cls-3 { fill: #ff5252; } .cls-4 { fill: #40c4ff; } .cls-5 { fill: #37474f; } </style></defs><g id="coworking" transform="translate(683.516 3940)"><path id="Path_122" data-name="Path 122" class="cls-1" d="M217.1,365.945H8.043A3.516,3.516,0,0,1,4.5,362.459v-6.972A3.516,3.516,0,0,1,8.043,352H217.1a3.516,3.516,0,0,1,3.542,3.486v6.972A3.514,3.514,0,0,1,217.1,365.945Zm0,0" transform="translate(-2.757 -198.606)"></path><path id="Path_123" data-name="Path 123" class="cls-2" d="M214.844,365.431H5.786A5.264,5.264,0,0,1,.5,360.2v-6.972A5.264,5.264,0,0,1,5.789,348H214.847a5.267,5.267,0,0,1,5.289,5.229V360.2A5.272,5.272,0,0,1,214.844,365.431ZM5.786,351.486a1.772,1.772,0,0,0-1.8,1.743V360.2a1.775,1.775,0,0,0,1.8,1.743H214.847a1.775,1.775,0,0,0,1.8-1.743v-6.972a1.775,1.775,0,0,0-1.8-1.743Zm0,0" transform="translate(-0.5 -196.349)"></path><path id="Path_124" data-name="Path 124" class="cls-2" d="M54.243,446.55a1.742,1.742,0,0,1-1.743-1.743V397.743a1.743,1.743,0,1,1,3.486,0v47.064A1.744,1.744,0,0,1,54.243,446.55Zm0,0" transform="translate(-29.839 -223.431)"></path><path id="Path_125" data-name="Path 125" class="cls-2" d="M22.243,446.55a1.742,1.742,0,0,1-1.743-1.743V397.743a1.743,1.743,0,1,1,3.486,0v47.064A1.744,1.744,0,0,1,22.243,446.55Zm0,0" transform="translate(-11.784 -223.431)"></path><path id="Path_126" data-name="Path 126" class="cls-2" d="M150.243,484.917a1.744,1.744,0,0,1-1.743-1.743V465.743a1.743,1.743,0,1,1,3.486,0v17.431A1.744,1.744,0,0,1,150.243,484.917Zm0,0" transform="translate(-84.005 -261.798)"></path><path id="Path_127" data-name="Path 127" class="cls-2" d="M126.243,484.917a1.744,1.744,0,0,1-1.743-1.743V465.743a1.743,1.743,0,1,1,3.486,0v17.431A1.744,1.744,0,0,1,126.243,484.917Zm0,0" transform="translate(-70.463 -261.798)"></path><path id="Path_128" data-name="Path 128" class="cls-2" d="M478.243,446.55a1.744,1.744,0,0,1-1.743-1.743V397.743a1.743,1.743,0,0,1,3.486,0v47.064A1.744,1.744,0,0,1,478.243,446.55Zm0,0" transform="translate(-269.069 -223.431)"></path><path id="Path_129" data-name="Path 129" class="cls-2" d="M446.243,446.55a1.744,1.744,0,0,1-1.743-1.743V397.743a1.743,1.743,0,0,1,3.486,0v47.064A1.744,1.744,0,0,1,446.243,446.55Zm0,0" transform="translate(-251.014 -223.431)"></path><path id="Path_130" data-name="Path 130" class="cls-3" d="M130.849,433.945H95.986a3.489,3.489,0,0,1-3.486-3.486v-6.972A3.489,3.489,0,0,1,95.986,420h34.862a3.489,3.489,0,0,1,3.486,3.486v6.972A3.489,3.489,0,0,1,130.849,433.945Zm0,0" transform="translate(-52.408 -236.973)"></path><path id="Path_131" data-name="Path 131" class="cls-2" d="M128.592,433.431H93.729A5.235,5.235,0,0,1,88.5,428.2v-6.972A5.235,5.235,0,0,1,93.729,416h34.862a5.235,5.235,0,0,1,5.229,5.229V428.2A5.235,5.235,0,0,1,128.592,433.431ZM93.729,419.486a1.744,1.744,0,0,0-1.743,1.743V428.2a1.744,1.744,0,0,0,1.743,1.743h34.862a1.744,1.744,0,0,0,1.743-1.743v-6.972a1.744,1.744,0,0,0-1.743-1.743Zm0,0" transform="translate(-50.151 -234.716)"></path><path id="Path_132" data-name="Path 132" class="cls-2" d="M374.243,484.917a1.744,1.744,0,0,1-1.743-1.743V465.743a1.743,1.743,0,1,1,3.486,0v17.431A1.744,1.744,0,0,1,374.243,484.917Zm0,0" transform="translate(-210.39 -261.798)"></path><path id="Path_133" data-name="Path 133" class="cls-2" d="M350.243,484.917a1.744,1.744,0,0,1-1.743-1.743V465.743a1.743,1.743,0,1,1,3.486,0v17.431A1.744,1.744,0,0,1,350.243,484.917Zm0,0" transform="translate(-196.849 -261.798)"></path><path id="Path_134" data-name="Path 134" class="cls-3" d="M354.849,433.945H319.986a3.489,3.489,0,0,1-3.486-3.486v-6.972A3.489,3.489,0,0,1,319.986,420h34.862a3.489,3.489,0,0,1,3.486,3.486v6.972A3.489,3.489,0,0,1,354.849,433.945Zm0,0" transform="translate(-178.794 -236.973)"></path><path id="Path_135" data-name="Path 135" class="cls-2" d="M352.592,433.431H317.729A5.235,5.235,0,0,1,312.5,428.2v-6.972A5.235,5.235,0,0,1,317.729,416h34.862a5.235,5.235,0,0,1,5.229,5.229V428.2A5.235,5.235,0,0,1,352.592,433.431Zm-34.862-13.945a1.744,1.744,0,0,0-1.743,1.743V428.2a1.744,1.744,0,0,0,1.743,1.743h34.862a1.744,1.744,0,0,0,1.743-1.743v-6.972a1.744,1.744,0,0,0-1.743-1.743Zm0,0" transform="translate(-176.537 -234.716)"></path><path id="Path_136" data-name="Path 136" class="cls-4" d="M133.307,122.226H84.5l24.4-27.89Zm0,0" transform="translate(-47.895 -53.226)"></path><path id="Path_137" data-name="Path 137" class="cls-2" d="M131.05,121.746H82.243a1.742,1.742,0,0,1-1.311-2.89l24.4-27.89a1.8,1.8,0,0,1,2.625,0l24.4,27.89a1.742,1.742,0,0,1-1.314,2.89ZM86.085,118.26h41.123l-20.562-23.5Zm0,0" transform="translate(-45.637 -51.004)"></path><path id="Path_138" data-name="Path 138" class="cls-5" d="M138.243,59.215a1.744,1.744,0,0,1-1.743-1.743V30.743a1.743,1.743,0,0,1,3.486,0V57.472A1.744,1.744,0,0,1,138.243,59.215Zm0,0" transform="translate(-77.234 -16.362)"></path><path id="Path_139" data-name="Path 139" class="cls-5" d="M129.216,164.795a8.728,8.728,0,0,1-8.716-8.716,1.744,1.744,0,0,1,1.743-1.743h13.945a1.744,1.744,0,0,1,1.743,1.743A8.728,8.728,0,0,1,129.216,164.795Zm-4.933-6.972a5.233,5.233,0,0,0,9.866,0Zm0,0" transform="translate(-68.206 -87.08)"></path><path id="Path_140" data-name="Path 140" class="cls-4" d="M357.307,122.226H308.5l24.4-27.89Zm0,0" transform="translate(-174.28 -53.226)"></path><path id="Path_141" data-name="Path 141" class="cls-2" d="M355.05,121.746H306.243a1.742,1.742,0,0,1-1.311-2.89l24.4-27.89a1.8,1.8,0,0,1,2.625,0l24.4,27.89a1.742,1.742,0,0,1-1.314,2.89Zm-44.965-3.486h41.123l-20.562-23.5Zm0,0" transform="translate(-172.023 -51.004)"></path><path id="Path_142" data-name="Path 142" class="cls-5" d="M362.243,59.215a1.744,1.744,0,0,1-1.743-1.743V30.743a1.743,1.743,0,0,1,3.486,0V57.472A1.744,1.744,0,0,1,362.243,59.215Zm0,0" transform="translate(-203.619 -16.362)"></path><g id="Group_56" data-name="Group 56" transform="translate(0)"><path id="Path_143" data-name="Path 143" class="cls-2" d="M353.216,164.795a8.728,8.728,0,0,1-8.716-8.716,1.744,1.744,0,0,1,1.743-1.743h13.945a1.744,1.744,0,0,1,1.743,1.743A8.728,8.728,0,0,1,353.216,164.795Zm-4.933-6.972a5.233,5.233,0,0,0,9.866,0Zm0,0" transform="translate(-194.592 -87.08)"></path><path id="Path_144" data-name="Path 144" class="cls-2" d="M349.509,277.321h-55.78a5.235,5.235,0,0,1-5.229-5.229V237.229A5.235,5.235,0,0,1,293.729,232h55.78a5.235,5.235,0,0,1,5.229,5.229v34.862A5.235,5.235,0,0,1,349.509,277.321Zm-55.78-41.835a1.744,1.744,0,0,0-1.743,1.743v34.862a1.744,1.744,0,0,0,1.743,1.743h55.78a1.744,1.744,0,0,0,1.743-1.743V237.229a1.744,1.744,0,0,0-1.743-1.743Zm0,0" transform="translate(-162.996 -130.899)"></path><path id="Path_145" data-name="Path 145" class="cls-2" d="M347.454,340.2H277.729a5.235,5.235,0,0,1-5.229-5.229v-1.743A5.235,5.235,0,0,1,277.729,328h69.725a5.235,5.235,0,0,1,5.229,5.229v1.743A5.235,5.235,0,0,1,347.454,340.2Zm-69.725-8.716a1.744,1.744,0,0,0-1.743,1.743v1.743a1.744,1.744,0,0,0,1.743,1.743h69.725a1.744,1.744,0,0,0,1.743-1.743v-1.743a1.744,1.744,0,0,0-1.743-1.743Zm0,0" transform="translate(-153.968 -185.064)"></path><path id="Path_146" data-name="Path 146" class="cls-2" d="M409.215,258.463a1.75,1.75,0,0,1-1.234-.509l-6.972-6.972a1.743,1.743,0,1,1,2.465-2.465l6.972,6.972a1.741,1.741,0,0,1-1.231,2.974Zm0,0" transform="translate(-226.188 -139.931)"></path><path id="Path_147" data-name="Path 147" class="cls-2" d="M395.674,268.921a1.75,1.75,0,0,1-1.234-.509l-17.431-17.431a1.743,1.743,0,1,1,2.465-2.465L396.9,265.947a1.741,1.741,0,0,1-1.231,2.974Zm0,0" transform="translate(-212.646 -139.931)"></path><path id="Path_148" data-name="Path 148" class="cls-2" d="M125.509,277.321H69.729a5.235,5.235,0,0,1-5.229-5.229V237.229A5.235,5.235,0,0,1,69.729,232h55.78a5.235,5.235,0,0,1,5.229,5.229v34.862A5.235,5.235,0,0,1,125.509,277.321Zm-55.78-41.835a1.744,1.744,0,0,0-1.743,1.743v34.862a1.744,1.744,0,0,0,1.743,1.743h55.78a1.744,1.744,0,0,0,1.743-1.743V237.229a1.744,1.744,0,0,0-1.743-1.743Zm0,0" transform="translate(-36.61 -130.899)"></path><path id="Path_149" data-name="Path 149" class="cls-2" d="M123.454,340.2H53.729a5.235,5.235,0,0,1-5.229-5.229v-1.743A5.235,5.235,0,0,1,53.729,328h69.725a5.235,5.235,0,0,1,5.229,5.229v1.743A5.235,5.235,0,0,1,123.454,340.2Zm-69.725-8.716a1.744,1.744,0,0,0-1.743,1.743v1.743a1.744,1.744,0,0,0,1.743,1.743h69.725a1.744,1.744,0,0,0,1.743-1.743v-1.743a1.744,1.744,0,0,0-1.743-1.743Zm0,0" transform="translate(-27.583 -185.064)"></path><path id="Path_150" data-name="Path 150" class="cls-2" d="M185.215,258.463a1.75,1.75,0,0,1-1.234-.509l-6.972-6.972a1.743,1.743,0,1,1,2.465-2.465l6.972,6.972a1.741,1.741,0,0,1-1.231,2.974Zm0,0" transform="translate(-99.802 -139.931)"></path><path id="Path_151" data-name="Path 151" class="cls-2" d="M171.674,268.921a1.75,1.75,0,0,1-1.234-.509l-17.431-17.431a1.743,1.743,0,0,1,2.465-2.465L172.9,265.947a1.741,1.741,0,0,1-1.231,2.974Zm0,0" transform="translate(-86.261 -139.931)"></path><path id="Path_152" data-name="Path 152" class="cls-2" d="M214.9,13.945H5.729A5.233,5.233,0,0,1,.5,8.716V5.229A5.235,5.235,0,0,1,5.729,0H214.9a5.235,5.235,0,0,1,5.229,5.229V8.716A5.235,5.235,0,0,1,214.9,13.945ZM5.729,3.486A1.744,1.744,0,0,0,3.986,5.229V8.716a1.744,1.744,0,0,0,1.743,1.743H214.9a1.744,1.744,0,0,0,1.743-1.743V5.229A1.744,1.744,0,0,0,214.9,3.486Zm0,0" transform="translate(-0.5)"></path><path id="Path_153" data-name="Path 153" class="cls-2" d="M438.243,71.767a1.744,1.744,0,0,1-1.743-1.743V56.079a1.743,1.743,0,0,1,3.486,0V70.024A1.744,1.744,0,0,1,438.243,71.767Zm0,0" transform="translate(-246.5 -30.657)"></path><path id="Path_154" data-name="Path 154" class="cls-2" d="M436.188,73.822H422.243a1.743,1.743,0,1,1,0-3.486h13.945a1.743,1.743,0,0,1,0,3.486Zm0,0" transform="translate(-237.473 -39.685)"></path><path id="Path_155" data-name="Path 155" class="cls-2" d="M482.243,119.767a1.744,1.744,0,0,1-1.743-1.743V104.079a1.743,1.743,0,0,1,3.486,0v13.945A1.744,1.744,0,0,1,482.243,119.767Zm0,0" transform="translate(-271.326 -57.74)"></path><path id="Path_156" data-name="Path 156" class="cls-2" d="M480.188,121.822H466.243a1.743,1.743,0,1,1,0-3.486h13.945a1.743,1.743,0,1,1,0,3.486Zm0,0" transform="translate(-262.298 -66.768)"></path></g></g></svg> 