<?xml version="1.0" encoding="UTF-8"?> <svg xmlns="http://www.w3.org/2000/svg" viewBox="-3438 3940.314 201.934 222.805"><defs><style> .cls-1 { fill: #263238; } .cls-2 { fill: #ffd740; } .cls-3 { fill: #4db6ac; } </style></defs><g id="game-developer_1_" data-name="game-developer (1)" transform="translate(-3438 3926)"><g id="Group_53" data-name="Group 53" transform="translate(0 23.061)"><path id="Path_33" data-name="Path 33" class="cls-1" d="M159.487,152.477a40.012,40.012,0,0,1-38.822-29.745,10.417,10.417,0,0,1-5.971-2.137,1.765,1.765,0,0,1-.694-1.4V105.28a1.754,1.754,0,0,1,.694-1.4,10.393,10.393,0,0,1,5.971-2.137,40.207,40.207,0,0,1,77.645,0,10.428,10.428,0,0,1,5.968,2.134,1.753,1.753,0,0,1,.7,1.4V119.2a1.741,1.741,0,0,1-.7,1.4,10.426,10.426,0,0,1-5.964,2.134,40.019,40.019,0,0,1-38.826,29.745Zm-37.734-33.311a2,2,0,0,1,1.96,1.322,36.706,36.706,0,0,0,71.549,0,1.693,1.693,0,0,1,1.91-1.346,6.97,6.97,0,0,0,.8.091,6.855,6.855,0,0,0,3.5-.969V106.206a6.331,6.331,0,0,0-4-.916,2.079,2.079,0,0,1-2.218-1.305,36.707,36.707,0,0,0-71.549,0,1.763,1.763,0,0,1-1.907,1.346,6.924,6.924,0,0,0-.808-.091,6.836,6.836,0,0,0-3.5.969v12.055a6.262,6.262,0,0,0,4,.919,2.079,2.079,0,0,1,.255-.017Zm0,0" transform="translate(-64.139 -56.254)"></path><path id="Path_34" data-name="Path 34" class="cls-1" d="M70,296.043a27.963,27.963,0,0,1,16.967-25.728l33.083-14.177a1.748,1.748,0,0,1,1.374,3.215L88.342,273.532A24.465,24.465,0,0,0,73.5,296.043C73.971,297.606,70.359,298.386,70,296.043Z" transform="translate(-39.384 -159.774)"></path><path id="Path_35" data-name="Path 35" class="cls-1" d="M294.985,296.043a24.46,24.46,0,0,0-14.847-22.511L247.06,259.353a1.749,1.749,0,1,1,1.377-3.215l33.08,14.177a27.962,27.962,0,0,1,16.967,25.728C296.459,299.064,294.985,296.043,294.985,296.043Z" transform="translate(-138.405 -159.774)"></path><path id="Path_36" data-name="Path 36" class="cls-1" d="M197.746,272.565a1.743,1.743,0,0,1-1.456-.781l-14-20.994a1.728,1.728,0,0,1-.294-.969v-6.163a1.747,1.747,0,0,1,2.387-1.626,36.549,36.549,0,0,0,26.714,0,1.752,1.752,0,0,1,2.39,1.626v6.163a1.728,1.728,0,0,1-.294.969l-14,20.994a1.743,1.743,0,0,1-1.456.781ZM185.5,249.294l12.247,18.37,12.247-18.37v-3.149a40,40,0,0,1-24.493,0Zm26.243.528h.034Zm0,0" transform="translate(-102.398 -151.849)"></path><path id="Path_37" data-name="Path 37" class="cls-1" d="M65.241,249.21H33.75a1.749,1.749,0,1,1,0-3.5H65.241a1.749,1.749,0,1,1,0,3.5Zm0,0" transform="translate(-18.004 -153.988)"></path><path id="Path_38" data-name="Path 38" class="cls-1" d="M8.748,249.21h-7a1.749,1.749,0,1,1,0-3.5h7a1.749,1.749,0,1,1,0,3.5Zm0,0" transform="translate(0 -153.988)"></path><path id="Path_39" data-name="Path 39" class="cls-1" d="M357.241,249.21H325.749a1.749,1.749,0,0,1,0-3.5h31.491a1.749,1.749,0,1,1,0,3.5Zm0,0" transform="translate(-182.29 -153.988)"></path><path id="Path_40" data-name="Path 40" class="cls-1" d="M420.747,249.21h-7a1.749,1.749,0,0,1,0-3.5h7a1.749,1.749,0,1,1,0,3.5Zm0,0" transform="translate(-231.801 -153.988)"></path><path id="Path_42" data-name="Path 42" class="cls-1" d="M65.746,55.5h-14a1.75,1.75,0,0,1,0-3.5h14a1.75,1.75,0,0,1,0,3.5Zm0,0" transform="translate(-28.131 -45.002)"></path><path id="Path_43" data-name="Path 43" class="cls-1" d="M67.75,53.5A1.751,1.751,0,0,1,66,51.746v-14a1.75,1.75,0,0,1,3.5,0v14A1.751,1.751,0,0,1,67.75,53.5Zm0,0" transform="translate(-37.133 -36)"></path><path id="Path_44" data-name="Path 44" class="cls-1" d="M33.746,95.5h-14a1.75,1.75,0,0,1,0-3.5h14a1.75,1.75,0,1,1,0,3.5Zm0,0" transform="translate(-10.127 -67.507)"></path><path id="Path_45" data-name="Path 45" class="cls-1" d="M35.75,93.5A1.751,1.751,0,0,1,34,91.746v-14a1.75,1.75,0,1,1,3.5,0v14A1.751,1.751,0,0,1,35.75,93.5Zm0,0" transform="translate(-19.129 -58.505)"></path><path id="Path_88" data-name="Path 88" class="cls-1" d="M233.932,386.011H65.735A11.75,11.75,0,0,1,54,374.276v-50.85a11.75,11.75,0,0,1,11.735-11.735H90.077l9.215-14.747a2.033,2.033,0,0,1,3.316,0l9.214,14.747h122.11a11.75,11.75,0,0,1,11.735,11.735v50.85a11.75,11.75,0,0,1-11.735,11.735ZM65.735,315.6a7.831,7.831,0,0,0-7.823,7.823v50.85a7.831,7.831,0,0,0,7.823,7.823h168.2a7.831,7.831,0,0,0,7.823-7.823v-50.85a7.831,7.831,0,0,0-7.823-7.823H110.737a1.956,1.956,0,0,1-1.658-.919l-8.133-13.011-8.133,13.011a1.944,1.944,0,0,1-1.654.919Zm0,0" transform="translate(-43.732 -171.952)"></path><path id="Path_89" data-name="Path 89" class="cls-1" d="M135.071,371.912H95.956a1.956,1.956,0,0,1,0-3.912h39.116a1.956,1.956,0,1,1,0,3.912Zm0,0" transform="translate(-64.174 -208.703)"></path><path id="Path_90" data-name="Path 90" class="cls-1" d="M193.745,411.912H95.956a1.956,1.956,0,0,1,0-3.912h97.789a1.956,1.956,0,0,1,0,3.912Zm0,0" transform="translate(-63.196 -235.013)"></path><path id="Path_91" data-name="Path 91" class="cls-1" d="M174.187,435.912H95.956a1.956,1.956,0,1,1,0-3.912h78.231a1.956,1.956,0,0,1,0,3.912Zm0,0" transform="translate(-63.196 -247.278)"></path></g><path id="Path_46" data-name="Path 46" class="cls-2" d="M135.75,126.744H134V104h10.5v14A8.747,8.747,0,0,1,135.75,126.744Zm0,0" transform="translate(-75.392 -51.198)"></path><path id="Path_47" data-name="Path 47" class="cls-1" d="M133.5,126.243H131.75a1.751,1.751,0,0,1-1.75-1.75V101.75a1.751,1.751,0,0,1,1.75-1.75h10.5a1.751,1.751,0,0,1,1.75,1.75v14A10.508,10.508,0,0,1,133.5,126.243Zm0-3.5h.034Zm0-19.245v19.245a7,7,0,0,0,7-7V103.5Zm0,0" transform="translate(-73.141 -48.947)"></path><path id="Path_48" data-name="Path 48" class="cls-2" d="M278,97.363v14.174a8.747,8.747,0,0,0,8.748,8.748h1.75V92.52A17.4,17.4,0,0,1,278,97.363Zm0,0" transform="translate(-156.409 -44.739)"></path><path id="Path_49" data-name="Path 49" class="cls-1" d="M286.247,119.781H284.5a10.511,10.511,0,0,1-10.5-10.5V95.114a1.749,1.749,0,0,1,1.575-1.743,15.713,15.713,0,0,0,9.443-4.353A1.752,1.752,0,0,1,288,90.267v27.765a1.751,1.751,0,0,1-1.75,1.749ZM277.5,96.628v12.657a7,7,0,0,0,7,7v-22.4a19.473,19.473,0,0,1-7,2.742Zm0,0" transform="translate(-154.159 -42.486)"></path><path id="Path_50" data-name="Path 50" class="cls-1" d="M199.837,196.905a19.186,19.186,0,0,1-13.608-5.626,1.749,1.749,0,0,1,2.474-2.474,15.769,15.769,0,0,0,22.269,0,1.749,1.749,0,1,1,2.474,2.474A19.206,19.206,0,0,1,199.837,196.905Zm0,0" transform="translate(-104.489 -98.623)"></path><path id="Path_51" data-name="Path 51" class="cls-2" d="M195.233,56.74H134A26.243,26.243,0,0,1,160.243,30.5h18.213a52.485,52.485,0,0,0,22-4.832L212.728,20V39.245A17.494,17.494,0,0,1,195.233,56.74Zm0,0" transform="translate(-75.392 -3.937)"></path><path id="Path_52" data-name="Path 52" class="cls-1" d="M192.982,56.239H131.75A1.751,1.751,0,0,1,130,54.49,28.024,28.024,0,0,1,157.992,26.5h18.216a51.02,51.02,0,0,0,21.261-4.671l12.274-5.665a1.753,1.753,0,0,1,2.484,1.589V36.995a19.266,19.266,0,0,1-19.245,19.245Zm-59.42-3.5h59.42a15.765,15.765,0,0,0,15.746-15.746V20.482L198.938,25A54.644,54.644,0,0,1,176.208,30H157.992a24.526,24.526,0,0,0-24.43,22.744Zm0,0" transform="translate(-73.141 -1.688)"></path><path id="Path_92" data-name="Path 92" class="cls-3" d="M369.292,387.646A15.646,15.646,0,1,1,353.646,372,15.647,15.647,0,0,1,369.292,387.646Zm0,0" transform="translate(-190.828 -188.665)"></path><path id="Path_93" data-name="Path 93" class="cls-1" d="M351.6,403.2a17.6,17.6,0,1,1,17.6-17.6A17.624,17.624,0,0,1,351.6,403.2Zm0-31.292a13.69,13.69,0,1,0,13.69,13.69A13.7,13.7,0,0,0,351.6,371.912Zm0,0" transform="translate(-188.783 -186.621)"></path></g></svg> 