<?xml version="1.0" encoding="UTF-8"?> <svg xmlns="http://www.w3.org/2000/svg" viewBox="-5543 3927 190 223.119"><defs><style> .cls-1 { fill: #263238; } .cls-2 { fill: #ffd740; } .cls-3 { fill: #40c4ff; } </style></defs><g id="game-developer_1_" data-name="game-developer (1)" transform="translate(-5543 3927)"><g id="Group_53" data-name="Group 53" transform="translate(0 15.688)"><path id="Path_32" data-name="Path 32" class="cls-1" d="M192.642,401.211H169.982a1.743,1.743,0,1,1,0-3.486h22.661a6.979,6.979,0,0,0,6.972-6.972V338.459a6.979,6.979,0,0,0-6.972-6.972H112.459a6.979,6.979,0,0,0-6.972,6.972v52.294a6.979,6.979,0,0,0,6.972,6.972h22.661a1.743,1.743,0,1,1,0,3.486H112.459A10.472,10.472,0,0,1,102,390.752V338.459A10.472,10.472,0,0,1,112.459,328h80.183A10.472,10.472,0,0,1,203.1,338.459v52.294A10.472,10.472,0,0,1,192.642,401.211Zm0,0" transform="translate(-57.55 -200.752)"></path><path id="Path_33" data-name="Path 33" class="cls-1" d="M159.321,152.183a39.866,39.866,0,0,1-38.681-29.636,10.379,10.379,0,0,1-5.949-2.13,1.758,1.758,0,0,1-.691-1.4V105.158a1.747,1.747,0,0,1,.691-1.392,10.355,10.355,0,0,1,5.949-2.13,40.061,40.061,0,0,1,77.361,0,10.389,10.389,0,0,1,5.946,2.126,1.747,1.747,0,0,1,.695,1.4V119.03a1.735,1.735,0,0,1-.695,1.391,10.388,10.388,0,0,1-5.943,2.126,39.872,39.872,0,0,1-38.684,29.636Zm-37.6-33.189a1.993,1.993,0,0,1,1.952,1.318,36.572,36.572,0,0,0,71.287,0,1.687,1.687,0,0,1,1.9-1.341,6.943,6.943,0,0,0,.8.09,6.83,6.83,0,0,0,3.486-.965V106.081a6.308,6.308,0,0,0-3.982-.912,2.071,2.071,0,0,1-2.21-1.3,36.573,36.573,0,0,0-71.287,0,1.757,1.757,0,0,1-1.9,1.341,6.9,6.9,0,0,0-.805-.09,6.811,6.811,0,0,0-3.486.965V118.1a6.24,6.24,0,0,0,3.985.916,2.069,2.069,0,0,1,.254-.017Zm0,0" transform="translate(-64.321 -56.312)"></path><path id="Path_34" data-name="Path 34" class="cls-1" d="M71.743,343.153A1.744,1.744,0,0,1,70,341.41V295.9a27.861,27.861,0,0,1,16.905-25.634l32.963-14.125a1.742,1.742,0,0,1,1.369,3.2L88.276,273.468A24.376,24.376,0,0,0,73.486,295.9V341.41a1.744,1.744,0,0,1-1.743,1.743Zm0,0" transform="translate(-39.495 -160.126)"></path><path id="Path_35" data-name="Path 35" class="cls-1" d="M296.55,343.153a1.744,1.744,0,0,1-1.743-1.743V295.9a24.37,24.37,0,0,0-14.793-22.429L247.056,259.34a1.743,1.743,0,1,1,1.372-3.2l32.959,14.125A27.859,27.859,0,0,1,298.293,295.9V341.41a1.744,1.744,0,0,1-1.743,1.743Zm0,0" transform="translate(-138.798 -160.125)"></path><path id="Path_36" data-name="Path 36" class="cls-1" d="M197.688,272.453a1.737,1.737,0,0,1-1.45-.778l-13.945-20.917a1.722,1.722,0,0,1-.293-.965v-6.14a1.741,1.741,0,0,1,2.378-1.621,36.415,36.415,0,0,0,26.617,0,1.746,1.746,0,0,1,2.381,1.621v6.14a1.722,1.722,0,0,1-.293.965l-13.945,20.917a1.737,1.737,0,0,1-1.45.778Zm-12.2-23.187,12.2,18.3,12.2-18.3v-3.137a39.855,39.855,0,0,1-24.4,0Zm26.147.526h.034Zm0,0" transform="translate(-102.688 -152.178)"></path><path id="Path_37" data-name="Path 37" class="cls-1" d="M65.119,249.2H33.743a1.743,1.743,0,1,1,0-3.486H65.119a1.743,1.743,0,1,1,0,3.486Zm0,0" transform="translate(-18.055 -154.323)"></path><path id="Path_38" data-name="Path 38" class="cls-1" d="M8.716,249.2H1.743a1.743,1.743,0,1,1,0-3.486H8.716a1.743,1.743,0,1,1,0,3.486Zm0,0" transform="translate(0 -154.323)"></path><path id="Path_39" data-name="Path 39" class="cls-1" d="M357.119,249.2H325.743a1.743,1.743,0,1,1,0-3.486h31.376a1.743,1.743,0,1,1,0,3.486Zm0,0" transform="translate(-182.807 -154.323)"></path><path id="Path_40" data-name="Path 40" class="cls-1" d="M420.716,249.2h-6.972a1.743,1.743,0,0,1,0-3.486h6.972a1.743,1.743,0,1,1,0,3.486Zm0,0" transform="translate(-232.459 -154.323)"></path><path id="Path_41" data-name="Path 41" class="cls-1" d="M212.661,484.917a1.744,1.744,0,0,1-1.743-1.743V467.486H193.486v15.688a1.743,1.743,0,1,1-3.486,0V465.743A1.744,1.744,0,0,1,191.743,464h20.917a1.744,1.744,0,0,1,1.743,1.743v17.431A1.744,1.744,0,0,1,212.661,484.917Zm0,0" transform="translate(-107.202 -277.486)"></path><path id="Path_42" data-name="Path 42" class="cls-1" d="M65.688,55.486H51.743a1.743,1.743,0,1,1,0-3.486H65.688a1.743,1.743,0,1,1,0,3.486Zm0,0" transform="translate(-28.211 -45.028)"></path><path id="Path_43" data-name="Path 43" class="cls-1" d="M67.743,53.431A1.744,1.744,0,0,1,66,51.688V37.743a1.743,1.743,0,1,1,3.486,0V51.688A1.744,1.744,0,0,1,67.743,53.431Zm0,0" transform="translate(-37.239 -36)"></path><path id="Path_44" data-name="Path 44" class="cls-1" d="M33.688,95.486H19.743a1.743,1.743,0,1,1,0-3.486H33.688a1.743,1.743,0,1,1,0,3.486Zm0,0" transform="translate(-10.156 -67.596)"></path><path id="Path_45" data-name="Path 45" class="cls-1" d="M35.743,93.431A1.744,1.744,0,0,1,34,91.688V77.743a1.743,1.743,0,0,1,3.486,0V91.688A1.744,1.744,0,0,1,35.743,93.431Zm0,0" transform="translate(-19.183 -58.569)"></path></g><path id="Path_46" data-name="Path 46" class="cls-2" d="M135.743,126.661H134V104h10.459v13.945A8.715,8.715,0,0,1,135.743,126.661Zm0,0" transform="translate(-75.606 -58.679)"></path><path id="Path_47" data-name="Path 47" class="cls-1" d="M133.486,126.147h-1.743A1.744,1.744,0,0,1,130,124.4V101.743A1.744,1.744,0,0,1,131.743,100H142.2a1.744,1.744,0,0,1,1.743,1.743v13.945A10.47,10.47,0,0,1,133.486,126.147Zm0-3.486h.034Zm0-19.174v19.174a6.979,6.979,0,0,0,6.972-6.972v-12.2Zm0,0" transform="translate(-73.349 -56.422)"></path><path id="Path_48" data-name="Path 48" class="cls-2" d="M278,97.346v14.122a8.715,8.715,0,0,0,8.716,8.716h1.743V92.52A17.335,17.335,0,0,1,278,97.346Zm0,0" transform="translate(-156.853 -52.202)"></path><path id="Path_49" data-name="Path 49" class="cls-1" d="M286.2,119.667h-1.743A10.472,10.472,0,0,1,274,109.208V95.09a1.742,1.742,0,0,1,1.569-1.736,15.655,15.655,0,0,0,9.408-4.337,1.746,1.746,0,0,1,2.967,1.244v27.664a1.744,1.744,0,0,1-1.743,1.743ZM277.486,96.6v12.61a6.979,6.979,0,0,0,6.972,6.972V93.866a19.4,19.4,0,0,1-6.972,2.732Zm0,0" transform="translate(-154.596 -49.942)"></path><path id="Path_50" data-name="Path 50" class="cls-1" d="M199.786,196.874a19.116,19.116,0,0,1-13.559-5.606,1.743,1.743,0,1,1,2.465-2.465,15.711,15.711,0,0,0,22.187,0,1.743,1.743,0,1,1,2.465,2.465A19.136,19.136,0,0,1,199.786,196.874Zm0,0" transform="translate(-104.786 -106.238)"></path><path id="Path_51" data-name="Path 51" class="cls-2" d="M195.009,56.606H134a26.147,26.147,0,0,1,26.147-26.147h18.146a52.294,52.294,0,0,0,21.915-4.814L212.44,20V39.174A17.43,17.43,0,0,1,195.009,56.606Zm0,0" transform="translate(-75.606 -11.284)"></path><path id="Path_52" data-name="Path 52" class="cls-1" d="M192.752,56.093H131.743A1.744,1.744,0,0,1,130,54.349a27.922,27.922,0,0,1,27.89-27.89h18.15a50.833,50.833,0,0,0,21.183-4.654l12.229-5.645a1.746,1.746,0,0,1,2.475,1.583V36.918a19.2,19.2,0,0,1-19.174,19.174Zm-59.2-3.486h59.2A15.707,15.707,0,0,0,208.44,36.918V20.466l-9.754,4.506a54.445,54.445,0,0,1-22.647,4.974H157.89a24.437,24.437,0,0,0-24.341,22.661Zm0,0" transform="translate(-73.349 -9.028)"></path><path id="Path_53" data-name="Path 53" class="cls-1" d="M315.551,112.88a1.744,1.744,0,0,1-1.743-1.743V100.423c0-1.181-.049-2.356-.143-3.513a1.742,1.742,0,1,1,3.473-.286c.1,1.251.157,2.521.157,3.8v10.714A1.744,1.744,0,0,1,315.551,112.88Zm0,0" transform="translate(-176.973 -53.614)"></path><path id="Path_54" data-name="Path 54" class="cls-3" d="M318,132h5.229a8.715,8.715,0,0,1,8.716,8.716v10.459a8.715,8.715,0,0,1-8.716,8.716H318Zm0,0" transform="translate(-179.422 -74.477)"></path><path id="Path_55" data-name="Path 55" class="cls-1" d="M320.972,159.376h-5.229A1.744,1.744,0,0,1,314,157.633v-27.89A1.744,1.744,0,0,1,315.743,128h5.229a10.472,10.472,0,0,1,10.459,10.459v10.459A10.472,10.472,0,0,1,320.972,159.376Zm-3.486-3.486h3.486a6.979,6.979,0,0,0,6.972-6.972V138.459a6.979,6.979,0,0,0-6.972-6.972h-3.486Zm0,0" transform="translate(-177.165 -72.22)"></path><path id="Path_56" data-name="Path 56" class="cls-3" d="M99.945,159.89H94.716A8.715,8.715,0,0,1,86,151.174V140.716A8.715,8.715,0,0,1,94.716,132h5.229Zm0,0" transform="translate(-48.523 -74.477)"></path><path id="Path_57" data-name="Path 57" class="cls-1" d="M97.688,159.376H92.459A10.472,10.472,0,0,1,82,148.917V138.459A10.472,10.472,0,0,1,92.459,128h5.229a1.744,1.744,0,0,1,1.743,1.743v27.89A1.744,1.744,0,0,1,97.688,159.376Zm-5.229-27.89a6.979,6.979,0,0,0-6.972,6.972v10.459a6.979,6.979,0,0,0,6.972,6.972h3.486v-24.4Zm0,0" transform="translate(-46.266 -72.22)"></path><path id="Path_58" data-name="Path 58" class="cls-1" d="M315.594,112.79a1.744,1.744,0,0,1-1.743-1.743v-12.2c0-.463-.031-.921-.063-1.374l-.049-.775a1.742,1.742,0,0,1,1.653-1.827,1.658,1.658,0,0,1,1.827,1.656l.046.715c.039.529.073,1.064.073,1.6v12.2A1.744,1.744,0,0,1,315.594,112.79Zm0,0" transform="translate(-177.016 -53.524)"></path><path id="Path_59" data-name="Path 59" class="cls-1" d="M115.743,59.266A1.744,1.744,0,0,1,114,57.523v-12.2A45.31,45.31,0,0,1,184.419,7.594a1.742,1.742,0,0,1-1.932,2.9,41.827,41.827,0,0,0-65,34.828v12.2a1.744,1.744,0,0,1-1.743,1.743Zm0,0" transform="translate(-64.321)"></path><path id="Path_60" data-name="Path 60" class="cls-1" d="M165.692,404.4a1.743,1.743,0,0,1-1.042-.349l-13.945-10.459a1.741,1.741,0,0,1,0-2.788l13.945-10.459a1.742,1.742,0,1,1,2.09,2.788L154.652,392.2l12.083,9.065a1.743,1.743,0,0,1-1.042,3.137Zm0,0" transform="translate(-84.637 -214.402)"></path><path id="Path_61" data-name="Path 61" class="cls-1" d="M247.742,404.406a1.742,1.742,0,0,1-1.042-3.137l12.086-9.065L246.7,383.139a1.741,1.741,0,1,1,2.087-2.788l13.945,10.459a1.741,1.741,0,0,1,0,2.788l-13.945,10.459a1.735,1.735,0,0,1-1.042.349Zm0,0" transform="translate(-138.797 -214.406)"></path><path id="Path_62" data-name="Path 62" class="cls-1" d="M199.744,404.408a1.744,1.744,0,0,1-1.45-2.708l13.945-20.917a1.742,1.742,0,0,1,2.9,1.93l-13.945,20.917A1.737,1.737,0,0,1,199.744,404.408Zm0,0" transform="translate(-111.717 -214.408)"></path></g></svg> 