<?xml version="1.0" encoding="UTF-8"?> <svg xmlns="http://www.w3.org/2000/svg" viewBox="-8044.702 1123 166.703 138.644"><defs><style> .cls-1 { fill: #e6e9ed; } .cls-2 { fill: #ccd1d9; } .cls-3 { fill: #fff; } .cls-4 { fill: #5d9cec; } </style></defs><g id="i1" transform="translate(-8044.702 1123)"><g id="Group-6"><g id="_002-news-feed" data-name="002-news-feed" transform="translate(16.505)"><path id="Path" class="cls-1" d="M0,124.078a2.423,2.423,0,0,0,2.423,2.41H147.775a2.423,2.423,0,0,0,2.422-2.41V6H0Z" transform="translate(0 3.903)"></path><path id="Path-2" data-name="Path" class="cls-2" d="M150.2,4.952V9.9H0V4.952A4.884,4.884,0,0,1,4.845,0H145.352A4.884,4.884,0,0,1,150.2,4.952Z"></path><path id="Path-3" data-name="Path" class="cls-1" d="M5.482,1H5.457a2.482,2.482,0,1,0,.025,0Z" transform="translate(1.952 0.651)"></path><path id="Path-4" data-name="Path" class="cls-1" d="M9.482,1H9.457a2.482,2.482,0,1,0,.025,0Z" transform="translate(4.554 0.651)"></path><path id="Path-5" data-name="Path" class="cls-1" d="M14.482,1h-.025a2.482,2.482,0,1,0,.025,0Z" transform="translate(7.806 0.651)"></path><g id="Group" transform="translate(9.903 23.11)"><path id="Path-6" data-name="Path" class="cls-2" d="M36.22,0a2.412,2.412,0,0,1,2.415,2.4V33.544a2.412,2.412,0,0,1-2.415,2.4H2.415A2.412,2.412,0,0,1,0,33.544V2.4A2.412,2.412,0,0,1,2.415,0Z" transform="translate(0 -0.001)"></path><path id="Path-7" data-name="Path" class="cls-2" d="M64.016,0a2.412,2.412,0,0,1,2.415,2.4V55.107a2.412,2.412,0,0,1-2.415,2.4h-33.8a2.412,2.412,0,0,1-2.415-2.4V2.4A2.412,2.412,0,0,1,30.211,0Z" transform="translate(18.082 -0.001)"></path><path id="Path-8" data-name="Path" class="cls-2" d="M91.812,0a2.412,2.412,0,0,1,2.415,2.4V33.544a2.412,2.412,0,0,1-2.415,2.4h-33.8a2.412,2.412,0,0,1-2.415-2.4V2.4A2.412,2.412,0,0,1,58.007,0Z" transform="translate(36.164 -0.001)"></path><path id="Path-9" data-name="Path" class="cls-2" d="M36.22,26.13a2.412,2.412,0,0,1,2.415,2.4V81.236a2.412,2.412,0,0,1-2.415,2.4H2.415A2.412,2.412,0,0,1,0,81.236V28.526a2.412,2.412,0,0,1,2.415-2.4Z" transform="translate(0 16.996)"></path><path id="Path-10" data-name="Path" class="cls-2" d="M91.812,26.13a2.412,2.412,0,0,1,2.415,2.4V81.236a2.412,2.412,0,0,1-2.415,2.4h-33.8a2.412,2.412,0,0,1-2.415-2.4V28.526a2.412,2.412,0,0,1,2.415-2.4Z" transform="translate(36.164 16.996)"></path><path id="Path-11" data-name="Path" class="cls-2" d="M64.016,39.209a2.412,2.412,0,0,1,2.415,2.4V72.728a2.412,2.412,0,0,1-2.415,2.4h-33.8a2.412,2.412,0,0,1-2.415-2.4V41.6a2.412,2.412,0,0,1,2.415-2.4Z" transform="translate(18.082 25.504)"></path></g><path id="Path-12" data-name="Path" class="cls-3" d="M41.589,11a2.4,2.4,0,0,1,2.373,2.421v31.47a2.4,2.4,0,0,1-2.373,2.421H8.373A2.4,2.4,0,0,1,6,44.891V13.421A2.4,2.4,0,0,1,8.373,11Z" transform="translate(3.903 7.156)"></path><path id="Path-13" data-name="Path" class="cls-3" d="M69.589,12a2.4,2.4,0,0,1,2.373,2.407V67.361a2.4,2.4,0,0,1-2.373,2.407H36.373A2.4,2.4,0,0,1,34,67.361V14.407A2.4,2.4,0,0,1,36.373,12Z" transform="translate(22.118 7.806)"></path><path id="Path-14" data-name="Path" class="cls-3" d="M97.589,11a2.4,2.4,0,0,1,2.373,2.421v31.47a2.4,2.4,0,0,1-2.373,2.421H64.373A2.4,2.4,0,0,1,62,44.891V13.421A2.4,2.4,0,0,1,64.373,11Z" transform="translate(40.332 7.156)"></path><path id="Path-15" data-name="Path" class="cls-3" d="M41.589,38a2.4,2.4,0,0,1,2.373,2.407V93.361a2.4,2.4,0,0,1-2.373,2.407H8.373A2.4,2.4,0,0,1,6,93.361V40.407A2.4,2.4,0,0,1,8.373,38Z" transform="translate(3.903 24.72)"></path><path id="Path-16" data-name="Path" class="cls-3" d="M97.589,38a2.4,2.4,0,0,1,2.373,2.407V93.361a2.4,2.4,0,0,1-2.373,2.407H64.373A2.4,2.4,0,0,1,62,93.361V40.407A2.4,2.4,0,0,1,64.373,38Z" transform="translate(40.332 24.72)"></path><path id="Path-17" data-name="Path" class="cls-3" d="M69.589,51a2.4,2.4,0,0,1,2.373,2.422V84.889a2.4,2.4,0,0,1-2.373,2.422H36.373A2.4,2.4,0,0,1,34,84.889V53.422A2.4,2.4,0,0,1,36.373,51Z" transform="translate(22.118 33.176)"></path><path id="Path-18" data-name="Path" class="cls-4" d="M24.482,30.952A2.476,2.476,0,0,1,24.455,26h.027a2.476,2.476,0,0,1,0,4.952Z" transform="translate(14.311 16.913)"></path><path id="Path-19" data-name="Path" class="cls-2" d="M22.422,30.952h-4.94a2.476,2.476,0,1,1,0-4.952h4.94a2.476,2.476,0,1,1,0,4.952Z" transform="translate(9.758 16.913)"></path><path id="Path-20" data-name="Path" class="cls-1" d="M33.282,21.952H13.476a2.476,2.476,0,1,1,0-4.952H33.282a2.476,2.476,0,1,1,0,4.952Z" transform="translate(7.156 11.059)"></path><path id="Path-21" data-name="Path" class="cls-1" d="M33.282,24.952H13.476a2.476,2.476,0,1,1,0-4.952H33.282a2.476,2.476,0,1,1,0,4.952Z" transform="translate(7.156 13.01)"></path><path id="Path-22" data-name="Path" class="cls-4" d="M52.482,70.952A2.476,2.476,0,0,1,52.455,66h.027a2.476,2.476,0,0,1,0,4.952Z" transform="translate(32.526 42.934)"></path><path id="Path-23" data-name="Path" class="cls-2" d="M50.422,70.952h-4.94a2.476,2.476,0,1,1,0-4.952h4.94a2.476,2.476,0,1,1,0,4.952Z" transform="translate(27.972 42.934)"></path><path id="Path-24" data-name="Path" class="cls-1" d="M60.282,60.952H40.476a2.476,2.476,0,1,1,0-4.952H60.282a2.476,2.476,0,1,1,0,4.952Z" transform="translate(24.72 36.429)"></path><path id="Path-25" data-name="Path" class="cls-1" d="M60.282,63.952H40.476a2.476,2.476,0,1,1,0-4.952H60.282a2.476,2.476,0,1,1,0,4.952Z" transform="translate(24.72 38.381)"></path><path id="Path-26" data-name="Path" class="cls-4" d="M24.482,70.952A2.476,2.476,0,0,1,24.455,66h.027a2.476,2.476,0,0,1,0,4.952Z" transform="translate(14.311 42.934)"></path><path id="Path-27" data-name="Path" class="cls-2" d="M22.422,70.952h-4.94a2.476,2.476,0,1,1,0-4.952h4.94a2.476,2.476,0,1,1,0,4.952Z" transform="translate(9.758 42.934)"></path><path id="Path-28" data-name="Path" class="cls-1" d="M33.282,60.952H13.476a2.476,2.476,0,1,1,0-4.952H33.282a2.476,2.476,0,1,1,0,4.952Z" transform="translate(7.156 36.429)"></path><path id="Path-29" data-name="Path" class="cls-1" d="M33.282,56.952H13.476a2.476,2.476,0,1,1,0-4.952H33.282a2.476,2.476,0,1,1,0,4.952Z" transform="translate(7.156 33.827)"></path><path id="Path-30" data-name="Path" class="cls-1" d="M33.282,51.952H13.476a2.476,2.476,0,1,1,0-4.952H33.282a2.476,2.476,0,1,1,0,4.952Z" transform="translate(7.156 30.574)"></path><path id="Path-31" data-name="Path" class="cls-1" d="M33.282,47.952H13.476a2.476,2.476,0,1,1,0-4.952H33.282a2.476,2.476,0,1,1,0,4.952Z" transform="translate(7.156 27.972)"></path><path id="Path-32" data-name="Path" class="cls-1" d="M33.282,63.952H13.476a2.476,2.476,0,1,1,0-4.952H33.282a2.476,2.476,0,1,1,0,4.952Z" transform="translate(7.156 38.381)"></path><path id="Path-33" data-name="Path" class="cls-4" d="M80.482,30.952A2.476,2.476,0,0,1,80.455,26h.027a2.476,2.476,0,0,1,0,4.952Z" transform="translate(50.74 16.913)"></path><path id="Path-34" data-name="Path" class="cls-2" d="M77.422,30.952h-4.94a2.476,2.476,0,1,1,0-4.952h4.94a2.476,2.476,0,1,1,0,4.952Z" transform="translate(45.536 16.913)"></path><path id="Path-35" data-name="Path" class="cls-1" d="M87.282,21.952H67.476a2.476,2.476,0,0,1,0-4.952H87.282a2.476,2.476,0,1,1,0,4.952Z" transform="translate(42.284 11.059)"></path><path id="Path-36" data-name="Path" class="cls-1" d="M87.282,24.952H67.476a2.476,2.476,0,0,1,0-4.952H87.282a2.476,2.476,0,1,1,0,4.952Z" transform="translate(42.284 13.01)"></path><path id="Path-37" data-name="Path" class="cls-4" d="M80.482,70.952A2.476,2.476,0,0,1,80.455,66h.027a2.476,2.476,0,0,1,0,4.952Z" transform="translate(50.74 42.934)"></path><path id="Path-38" data-name="Path" class="cls-2" d="M77.422,70.952h-4.94a2.476,2.476,0,1,1,0-4.952h4.94a2.476,2.476,0,1,1,0,4.952Z" transform="translate(45.536 42.934)"></path><path id="Path-39" data-name="Path" class="cls-1" d="M87.282,60.952H67.476a2.476,2.476,0,1,1,0-4.952H87.282a2.476,2.476,0,1,1,0,4.952Z" transform="translate(42.284 36.429)"></path><path id="Path-40" data-name="Path" class="cls-1" d="M87.282,56.952H67.476a2.476,2.476,0,0,1,0-4.952H87.282a2.476,2.476,0,1,1,0,4.952Z" transform="translate(42.284 33.827)"></path><path id="Path-41" data-name="Path" class="cls-1" d="M87.282,51.952H67.476a2.476,2.476,0,0,1,0-4.952H87.282a2.476,2.476,0,1,1,0,4.952Z" transform="translate(42.284 30.574)"></path><path id="Path-42" data-name="Path" class="cls-1" d="M87.282,47.952H67.476a2.476,2.476,0,1,1,0-4.952H87.282a2.476,2.476,0,1,1,0,4.952Z" transform="translate(42.284 27.972)"></path><path id="Path-43" data-name="Path" class="cls-1" d="M87.282,63.952H67.476a2.476,2.476,0,1,1,0-4.952H87.282a2.476,2.476,0,1,1,0,4.952Z" transform="translate(42.284 38.381)"></path><path id="Path-44" data-name="Path" class="cls-4" d="M52.482,44.952A2.476,2.476,0,0,1,52.455,40h.027a2.476,2.476,0,0,1,0,4.952Z" transform="translate(32.526 26.021)"></path><path id="Path-45" data-name="Path" class="cls-2" d="M50.422,44.952h-4.94a2.476,2.476,0,1,1,0-4.952h4.94a2.476,2.476,0,1,1,0,4.952Z" transform="translate(27.972 26.021)"></path><path id="Path-46" data-name="Path" class="cls-1" d="M60.282,33.952H40.476a2.476,2.476,0,1,1,0-4.952H60.282a2.476,2.476,0,1,1,0,4.952Z" transform="translate(24.72 18.865)"></path><path id="Path-47" data-name="Path" class="cls-1" d="M60.282,29.952H40.476a2.476,2.476,0,1,1,0-4.952H60.282a2.476,2.476,0,1,1,0,4.952Z" transform="translate(24.72 16.263)"></path><path id="Path-48" data-name="Path" class="cls-1" d="M60.282,24.952H40.476a2.476,2.476,0,1,1,0-4.952H60.282a2.476,2.476,0,1,1,0,4.952Z" transform="translate(24.72 13.01)"></path><path id="Path-49" data-name="Path" class="cls-1" d="M60.282,21.952H40.476a2.476,2.476,0,1,1,0-4.952H60.282a2.476,2.476,0,1,1,0,4.952Z" transform="translate(24.72 11.059)"></path><path id="Path-50" data-name="Path" class="cls-1" d="M60.282,37.952H40.476a2.476,2.476,0,1,1,0-4.952H60.282a2.476,2.476,0,1,1,0,4.952Z" transform="translate(24.72 21.467)"></path></g><g id="Group-2" transform="translate(0 61.069)"><path id="Path-51" data-name="Path" class="cls-3" d="M22.293,20.061A17.083,17.083,0,0,1,37.219,11c9.526,0,17.259,8.13,17.259,18.144v.023a8.868,8.868,0,0,1,8.64,9.083,8.862,8.862,0,0,1-8.64,9.061H19.96C12.791,47.311,7,41.2,7,33.686s5.791-13.625,12.96-13.625Z" transform="translate(4.554 7.156)"></path><path id="Shape" class="cls-4" d="M23.76,25.584a12.808,12.808,0,1,0,0,25.616H58.114a8.528,8.528,0,1,0,0-17.056v-.021a17.191,17.191,0,0,0-32.033-8.538ZM38.787,0a38.809,38.809,0,1,1-27.41,11.356A38.777,38.777,0,0,1,38.787,0Z"></path></g></g></g></svg> 