<?xml version="1.0" encoding="UTF-8"?> <svg xmlns="http://www.w3.org/2000/svg" viewBox="-1421 3940 224.872 223.119"><defs><style> .cls-1 { fill: #263238; } .cls-2 { fill: #ffd740; } .cls-3 { fill: #40c4ff; } </style></defs><g id="startup" transform="translate(-1421 3940)"><path id="Path_94" data-name="Path 94" class="cls-1" d="M133.75,429.079a1.757,1.757,0,0,1-.848-3.3l7.832-4.308a50.941,50.941,0,0,0,26.4-44.645v-8.194a1.757,1.757,0,0,1,3.514,0v8.194a54.472,54.472,0,0,1-28.211,47.723l-7.832,4.308a1.785,1.785,0,0,1-.851.218Zm0,0" transform="translate(-74.021 -205.96)"></path><path id="Path_95" data-name="Path 95" class="cls-1" d="M328.886,429.079a1.762,1.762,0,0,1-.848-.218l-7.832-4.308a54.464,54.464,0,0,1-28.214-47.723v-8.194a1.757,1.757,0,0,1,3.514,0v8.194a50.952,50.952,0,0,0,26.4,44.645l7.832,4.308a1.757,1.757,0,0,1-.851,3.3Zm0,0" transform="translate(-163.746 -205.96)"></path><path id="Path_96" data-name="Path 96" class="cls-1" d="M97.749,450.174a1.758,1.758,0,0,1-1.757-1.757A43.968,43.968,0,0,1,139.913,404.5c.221,0,.446.014.664.031a1.921,1.921,0,0,1,1.884,1.813,1.632,1.632,0,0,1-1.585,1.723h-.05l-.916-.05A40.454,40.454,0,0,0,99.5,448.42,1.752,1.752,0,0,1,97.749,450.174Zm0,0" transform="translate(-53.831 -227.055)"></path><path id="Path_97" data-name="Path 97" class="cls-1" d="M354.683,450.174a1.758,1.758,0,0,1-1.757-1.757,40.454,40.454,0,0,0-40.407-40.407l-.914.05h-.048a1.757,1.757,0,0,1-.05-3.514c.566-.036.788-.05,1.009-.05a43.968,43.968,0,0,1,43.921,43.921A1.753,1.753,0,0,1,354.683,450.174Zm0,0" transform="translate(-173.732 -227.055)"></path><path id="Path_98" data-name="Path 98" class="cls-1" d="M17.749,463.633a1.758,1.758,0,0,1-1.757-1.757,33.321,33.321,0,0,1,41.131-32.452,1.758,1.758,0,1,1-.825,3.418,29.8,29.8,0,0,0-36.8,29.034,1.753,1.753,0,0,1-1.753,1.757Zm0,0" transform="translate(-8.968 -240.514)"></path><path id="Path_99" data-name="Path 99" class="cls-1" d="M440,463.633a1.758,1.758,0,0,1-1.757-1.757,29.8,29.8,0,0,0-36.792-29.034,1.758,1.758,0,1,1-.825-3.418,33.318,33.318,0,0,1,41.128,32.452A1.753,1.753,0,0,1,440,463.633Zm0,0" transform="translate(-223.911 -240.514)"></path><path id="Path_100" data-name="Path 100" class="cls-1" d="M384.618,504.01H289.749a1.757,1.757,0,0,1,0-3.514h94.869a1.757,1.757,0,0,1,0,3.514Zm0,0" transform="translate(-161.503 -280.891)"></path><path id="Path_101" data-name="Path 101" class="cls-1" d="M252.29,504.01H241.749a1.757,1.757,0,0,1,0-3.514H252.29a1.757,1.757,0,1,1,0,3.514Zm0,0" transform="translate(-134.585 -280.891)"></path><path id="Path_102" data-name="Path 102" class="cls-1" d="M96.623,504.01H1.757a1.757,1.757,0,0,1,0-3.514H96.623a1.757,1.757,0,0,1,0,3.514Zm0,0" transform="translate(0 -280.891)"></path><path id="Path_103" data-name="Path 103" class="cls-1" d="M246.94,143.85H197.749a1.765,1.765,0,0,1-1.244-.513,1.742,1.742,0,0,1-.513-1.244l0-91.836A72.368,72.368,0,0,1,211.167,6.034a14.055,14.055,0,0,1,22.274-.113l-1.3,1.187,1.388-1.077A72.368,72.368,0,0,1,248.7,50.254v91.84a1.755,1.755,0,0,1-1.757,1.757Zm-47.435-3.514h45.678V50.257a68.867,68.867,0,0,0-14.43-42.066c-.007-.007-.014-.017-.021-.024l-.082-.11a10.544,10.544,0,0,0-16.626.022,68.973,68.973,0,0,0-14.515,42.178Zm0,0" transform="translate(-109.91 -0.496)"></path><path id="Path_104" data-name="Path 104" class="cls-2" d="M139.137,290.887H104v14.055h35.137" transform="translate(-58.322 -163.344)"></path><path id="Path_105" data-name="Path 105" class="cls-1" d="M136.886,304.455H101.749a1.757,1.757,0,0,1-1.757-1.757V288.644a1.758,1.758,0,0,1,1.757-1.757h35.137a1.757,1.757,0,0,1,0,3.514h-33.38v10.541h33.38a1.757,1.757,0,0,1,0,3.514Zm0,0" transform="translate(-56.074 -161.101)"></path><path id="Path_106" data-name="Path 106" class="cls-1" d="M248.886,336.455H213.749a1.757,1.757,0,0,1-1.757-1.757V320.644a1.758,1.758,0,0,1,1.757-1.757h35.137a1.758,1.758,0,0,1,1.757,1.757V334.7A1.755,1.755,0,0,1,248.886,336.455Zm-33.38-3.514h31.623V322.4H215.506Zm0,0" transform="translate(-118.883 -179.046)"></path><path id="Path_107" data-name="Path 107" class="cls-3" d="M252.109,82.551A14.055,14.055,0,1,1,238.055,68.5,14.055,14.055,0,0,1,252.109,82.551Zm0,0" transform="translate(-125.617 -38.63)"></path><path id="Path_108" data-name="Path 108" class="cls-1" d="M235.8,96.119a15.812,15.812,0,1,1,15.812-15.812A15.831,15.831,0,0,1,235.8,96.119Zm0-28.109a12.3,12.3,0,1,0,12.3,12.3A12.311,12.311,0,0,0,235.8,68.01Zm0,0" transform="translate(-123.369 -36.386)"></path><path id="Path_109" data-name="Path 109" class="cls-1" d="M101.749,241.423a1.757,1.757,0,0,1-1.757-1.757V229.125a1.758,1.758,0,0,1,.664-1.376l35.137-27.819a1.759,1.759,0,0,1,2.182,2.759L103.5,229.976v9.69a1.75,1.75,0,0,1-1.753,1.757Zm0,0" transform="translate(-56.074 -112.123)"></path><path id="Path_110" data-name="Path 110" class="cls-2" d="M328,290.887h35.137v14.055H328" transform="translate(-183.939 -163.344)"></path><g id="Group_55" data-name="Group 55" transform="translate(72.027 12.298)"><path id="Path_111" data-name="Path 111" class="cls-1" d="M360.886,304.455H325.749a1.757,1.757,0,0,1,0-3.514h33.38V290.4h-33.38a1.757,1.757,0,0,1,0-3.514h35.137a1.758,1.758,0,0,1,1.757,1.757V302.7A1.755,1.755,0,0,1,360.886,304.455Zm0,0" transform="translate(-253.718 -173.399)"></path><path id="Path_112" data-name="Path 112" class="cls-1" d="M360.883,241.426a1.757,1.757,0,0,1-1.757-1.757v-9.69l-34.473-27.288a1.759,1.759,0,0,1,2.182-2.759l35.137,27.82a1.758,1.758,0,0,1,.664,1.376v10.541a1.75,1.75,0,0,1-1.753,1.757Zm0,0" transform="translate(-253.716 -124.425)"></path><path id="Path_113" data-name="Path 113" class="cls-1" d="M431.8,48.01H417.749a1.757,1.757,0,0,1,0-3.514H431.8a1.757,1.757,0,0,1,0,3.514Zm0,0" transform="translate(-305.311 -37.469)"></path><path id="Path_114" data-name="Path 114" class="cls-1" d="M433.749,46.065a1.758,1.758,0,0,1-1.757-1.757V30.253a1.757,1.757,0,0,1,3.514,0V44.308A1.758,1.758,0,0,1,433.749,46.065Zm0,0" transform="translate(-314.284 -28.496)"></path><path id="Path_115" data-name="Path 115" class="cls-1" d="M487.8,100.01H473.749a1.757,1.757,0,1,1,0-3.514H487.8a1.757,1.757,0,0,1,0,3.514Zm0,0" transform="translate(-336.715 -66.63)"></path><path id="Path_116" data-name="Path 116" class="cls-1" d="M489.749,98.064a1.758,1.758,0,0,1-1.757-1.757V82.253a1.757,1.757,0,0,1,3.514,0V96.308A1.758,1.758,0,0,1,489.749,98.064Zm0,0" transform="translate(-345.688 -57.657)"></path><path id="Path_117" data-name="Path 117" class="cls-1" d="M165.749,159.037a1.758,1.758,0,0,1-1.757-1.757v-7.027a1.757,1.757,0,1,1,3.514,0v7.027A1.758,1.758,0,0,1,165.749,159.037Zm0,0" transform="translate(-163.992 -95.791)"></path><path id="Path_118" data-name="Path 118" class="cls-1" d="M165.749,102.362a1.758,1.758,0,0,1-1.757-1.757l0-26.353a1.757,1.757,0,0,1,3.514,0l0,26.353A1.758,1.758,0,0,1,165.749,102.362Zm0,0" transform="translate(-163.992 -53.171)"></path><path id="Path_119" data-name="Path 119" class="cls-1" d="M341.749,159.037a1.758,1.758,0,0,1-1.757-1.757v-7.027a1.757,1.757,0,0,1,3.514,0v7.027A1.758,1.758,0,0,1,341.749,159.037Zm0,0" transform="translate(-262.691 -95.791)"></path><path id="Path_120" data-name="Path 120" class="cls-1" d="M341.749,102.362a1.758,1.758,0,0,1-1.757-1.757l0-26.353a1.757,1.757,0,0,1,3.514,0l0,26.353A1.758,1.758,0,0,1,341.749,102.362Zm0,0" transform="translate(-262.691 -53.171)"></path><path id="Path_121" data-name="Path 121" class="cls-1" d="M285.749,208.674a1.757,1.757,0,0,1-1.757-1.757V136.644a1.757,1.757,0,1,1,3.514,0v70.274A1.755,1.755,0,0,1,285.749,208.674Zm0,0" transform="translate(-231.287 -88.159)"></path></g></g></svg> 